<svg xmlns="http://www.w3.org/2000/svg" width="135.111" height="79.041" class="cta-one__arrow"><g data-name="Mask Group 4111"><g data-name="Group 6314"><g fill="#fff" stroke="#fff" data-name="Group 4087"><path d="M96.573 140.003c6.194-3.18 11.693-8.828 15.482-15.905 4.482-8.366 6.52-18.625 5.893-29.667A93.533 93.533 0 0 0 99.79 44.27c-9.48-12.696-21.187-20.708-30.542-20.913-8.092-.177-13.604 5.259-15.838 15.44-7.69-4.845-20.452-8.815-41.625-8.9v.446c21.222.085 33.927 4.076 41.526 8.91a46.423 46.423 0 0 0-.715 4.745c-1.917 19.052 2.257 23.326 4.141 24.28 1.473.747 3.19.391 4.708-.977 3.168-2.854 5.113-9.615 2.478-16.522l-.013-.035c-1.305-3.4-4.106-7.808-10.1-11.696 2.164-10.051 7.535-15.424 15.426-15.25 9.225.207 20.794 8.152 30.195 20.735a93.081 93.081 0 0 1 18.07 49.92c1.397 24.606-10.51 39.701-21.132 45.153-4.99 2.562-4.932 3.034.204.397Zm-33.08-89.095.014.035c2.567 6.726.699 13.277-2.36 16.032-1.394 1.255-2.888 1.578-4.207.91-1.153-.584-2.723-2.206-3.65-6.622-.89-4.237-.974-10.03-.25-17.215q.242-2.398.674-4.53c5.79 3.799 8.508 8.08 9.78 11.391" data-name="Path 5929"/><path d="M15.774 33.005a.3.3 0 0 0-.086-.408l-3.773-2.467 3.834-2.373a.295.295 0 1 0-.31-.5l-4.223 2.615a.294.294 0 0 0-.006.497l4.155 2.721a.3.3 0 0 0 .409-.085" data-name="Path 5931"/></g></g></g></svg>