<svg xmlns="http://www.w3.org/2000/svg" width="190" height="44.794"><g fill="#0C1931" data-name="Group 2"><g data-name="Group 1"><path d="M21.942 22.284a7.014 7.014 0 0 1-7.191 5.779c-5.035 0-8.55-3.788-8.55-9.212 0-5.338 3.553-9.211 8.448-9.211a7.018 7.018 0 0 1 7.194 5.779l.188 1.049 6-1.388-.241-.995A13.285 13.285 0 0 0 14.547 3.947C6.255 3.947 0 10.355 0 18.851s6.276 14.9 14.6 14.9a13.318 13.318 0 0 0 13.3-10.134l.241-1-6.011-1.382Z" data-name="Path 1"/><path d="M58.015 27.463a.428.428 0 0 1-.023-.167V4.608h-6.1v2.706a11.265 11.265 0 0 0-8.3-3.366c-8.026 0-13.631 6.15-13.631 14.954 0 8.606 5.861 14.852 13.937 14.852a10.894 10.894 0 0 0 8.517-3.68 4.722 4.722 0 0 0 4.513 3.019h3.608v-5.59H58.3c-.248 0-.286-.044-.285-.04Zm-5.97-8.51c0 5.394-3.265 9.161-7.938 9.161-4.705 0-7.991-3.767-7.991-9.161 0-5.483 3.265-9.313 7.94-9.313 4.778 0 7.989 3.743 7.989 9.313Z" data-name="Path 2"/><path d="M77.535 3.947a10.176 10.176 0 0 0-7.38 2.824V4.608h-6.047v28.485h6.048V16.308a6.348 6.348 0 0 1 6.413-6.566 5.688 5.688 0 0 1 5.8 5.955v17.4h6.048V15.442c.003-6.768-4.473-11.495-10.882-11.495Z" data-name="Path 3"/><path d="M106.438 3.947a10.176 10.176 0 0 0-7.38 2.824V4.608h-6.046v28.485h6.048V16.308a6.348 6.348 0 0 1 6.413-6.566 5.688 5.688 0 0 1 5.8 5.955v17.4h6.048V15.442c.002-6.768-4.474-11.495-10.883-11.495Z" data-name="Path 4"/><path d="m139.868 4.608-7.61 20.991-7.184-20.991h-6.654l10.463 28.485h.3l-1.356 3.552c-.716 1.838-1.595 2.458-3.481 2.458h-3.958v5.691h3.814c4.66 0 7.514-1.791 8.983-5.633l13.403-34.553h-6.72Z" data-name="Path 5"/></g><path d="m153.974 0-7.386 19.069h18.826l1.609-4.623h-13.541l3.813-9.824h13.95L172.851 0Z" data-name="Path 6"/><path d="m171.174 4.608-1.61 4.623h13.512l-3.782 9.823h-13.951l-1.61 4.623h18.88L190 4.608Z" data-name="Path 7"/></g></svg>