<svg xmlns="http://www.w3.org/2000/svg" width="641" height="291"><g data-name="Mask Group 4114"><g data-name="Group 6244"><g fill="#0c1931" stroke="#0c1931" data-name="Group 6243"><path d="M466.7648-269.337c19.0857 3.2505 82.1788 18.5528 92.7819 78.9405a114.232 114.232 0 0 1 1.6787 23.9528c18.2545 4.679 35.9872 19.6625 48.8058 42.042 15.4556 26.9876 22.2613 61.5613 19.162 97.3526-3.6657 42.3138-21.1252 85.8042-50.4987 125.758-47.9896 65.2886-115.7812 116.5495-190.8822 144.3403-66.644 24.66-130.162 26.3373-165.7635 4.3835-30.789-18.988-38.1678-52.7956-21.6321-96.4652-40.7027-.4766-98.2952-16.5578-177.941-67.656l1.0845-1.6804c79.8275 51.2208 137.262 67.0844 177.6177 67.3644a208.422 208.422 0 0 1 8.9272-19.5612c39.4237-76.2192 65.5543-82.1464 74.9584-81.1595 7.3597.7726 12.921 6.2783 15.2705 15.1026 4.9027 18.419-4.3443 48.5422-31.1393 68.089l-.1335.097c-13.2177 9.6033-34.5129 19.3583-66.5095 19.408-16.4848 43.0182-9.4731 76.2371 20.5524 94.7527 35.0917 21.6418 97.941 19.8966 164.0187-4.5546 74.7362-27.6531 142.1975-78.6678 189.961-143.6464C642.529 8.491 634.7992-77.1384 608.2915-123.4157c-12.4543-21.7456-29.5778-36.3449-47.1631-41.0044a112.016 112.016 0 0 1-11.508 43.589c-8.5603 17.2537-21.8013 32.383-35.4214 40.4814-10.4832 6.2284-19.5488 7.3627-24.8769 3.1103-4.0211-3.2106-7.5636-10.8579-1.6014-29.0609 12.1418-37.0681 32.2757-58.8964 56.6968-61.4703a46.95 46.95 0 0 1 14.8147.8444 111.864 111.864 0 0 0-1.6558-23.1302c-10.3796-59.1088-72.3986-74.1285-91.1606-77.3249Zm92.3818 104.447a45.061 45.061 0 0 0-14.5265-.8833c-23.5854 2.4822-43.117 23.826-54.996 60.0974-4.3746 13.355-4.0355 22.9032.953 26.8856 4.5743 3.6504 13.0258 2.4296 22.609-3.2648 18.5777-11.0352 43.8102-41.5726 45.9613-82.8355M267.8912 129.9599l.1319-.0958c26.0762-19.0221 35.115-48.1796 30.384-65.9557-2.157-8.1001-6.972-12.9428-13.557-13.6356-5.7558-.6067-15.614 1.6757-29.8967 16.0143-13.7079 13.7603-28.1963 35.3186-43.0686 64.0656q-4.9656 9.5915-8.5568 18.6504c31.0152-.208 51.6919-9.688 64.5658-19.0414" data-name="Path 12409"/><path d="M465.8074-260.937a7.322 7.322 0 0 1-6.1365-8.3781 7.4 7.4 0 0 1 8.4145-6.163 7.321 7.321 0 0 1 6.1365 8.3782 7.4 7.4 0 0 1-8.4145 6.163" data-name="Path 12410"/><path d="M45.0412 81.3156a1.328 1.328 0 0 1-1.3179 1.3283l-20.1837.1158 8.5673 18.2126a1.3229 1.3229 0 0 1-2.3914 1.1318l-9.4426-20.0859a1.322 1.322 0 0 1 1.193-1.8815l22.25-.1314a1.316 1.316 0 0 1 1.3237 1.3115" data-name="Path 12411"/></g></g></g></svg>