<svg xmlns="http://www.w3.org/2000/svg" viewBox="0 0 228.586 29.659"><path fill="#feda2d" d="M228.494 20.611a5.151 5.151 0 0 0-.752-2.529 4.7495 4.7495 0 0 0-1.076-3.12.381.381 0 0 1-.079-.227c.247-1.4-.375-2.7-.444-4.063a23.7943 23.7943 0 0 1-.193-3.3c.013-.082 0-.165-.038-.239-.888-1.235-.934-2.8-1.461-4.177-.309-.808-.566-1.517-1.523-1.607a1.1288 1.1288 0 0 1-.612-.341c-.37-.378-.848-.597-1.344-.648a2.193 2.193 0 0 0-1.451.352c-.284.13-.598.181-.909.145a15.8449 15.8449 0 0 1-3.242-.244 2.5122 2.5122 0 0 0-.525-.108 2.568 2.568 0 0 0-1.533.322c-.388.195-.829.256-1.255.174-.071-.004-.141-.004-.212-.008-1.945-.115-3.897-.045-5.828.219a8.337 8.337 0 0 1-4.325-.489c-.7-.287-1.518-.163-2.215-.62a.9344.9344 0 0 0-1.007.1c-.447.428-1.153.428-1.6 0a.5872.5872 0 0 0-.654-.1c-1.423.487-2.915.742-4.419.755-1.657.139-3.316.261-4.975.411-1.39.126-2.769.364-4.154.439-1.047.001-2.09-.123-3.107-.371a6.317 6.317 0 0 0-2.424-.047c-1.024.2-2.076.331-3.092.432-.927.057-1.857-.014-2.764-.209a16.2059 16.2059 0 0 0-5.328-.1c-.66.05-1.323.06-1.984.032a7.57 7.57 0 0 0-2.55.162.9347.9347 0 0 1-.8-.075 12.6233 12.6233 0 0 0-3.131-.886 1.4954 1.4954 0 0 0-.7-.048c-1.454.279-2.937.092-4.4.335-.852.091-1.712.102-2.566.032-1.862-.13-3.733-.018-5.566.333-.477.113-.9-.175-1.369-.217-.872-.079-1.691.259-2.549.232-1.13-.037-2.26-.055-3.391-.056-.932-.053-1.866-.003-2.787.149-.693.124-1.405.1-2.088-.071a33.2305 33.2305 0 0 0-5.239-.235c-1.591.839-3.3.187-4.925.433-1.426.216-2.868.012-4.283.344-.536.117-1.092.117-1.628 0-2.238-.477-4.5-.2-6.751-.335-.508.03-1.017-.036-1.5-.195a.8847.8847 0 0 0-.905.017c-.57.351-1.251.475-1.908.349-1.442-.015-2.884-.048-4.326-.064-.372 0-.816-.129-.933.46h.008s-.003.007-.004.012l-1.375-.022-.002.002c-.061-.425-.349-.501-.685-.482h-.003c-1.237.071-2.462-.073-3.688-.201-.703-.074-1.406-.143-2.111-.163-.276-.008-.552-.008-.829.002-.508.047-1.02-.017-1.5-.189-.18-.089-.377-.132-.573-.128-.196.003-.391.053-.569.148a3.8364 3.8364 0 0 1-2.827.23c-.43-.107-.868-.178-1.309-.214-.44-.036-.882-.036-1.323 0-.152.028-.302.024-.452.002-.451-.065-.898-.287-1.379-.263-.094-.004-.188.001-.282-.002-1.616-.06-3.233-.016-4.842.149-.154.029-.309.047-.465.055-.466.023-.933-.045-1.374-.204a3.7402 3.7402 0 0 0-1.159-.113C65.57.6 58.207.48 50.84.368a6.6254 6.6254 0 0 0-2.433.159c-.472.17-.905-.202-1.366-.214-1.455-.164-2.923-.166-4.378-.014-.056.006-.112.008-.169.014-1.198.274-2.428.386-3.656.333-1.275-.08-2.539-.294-3.825-.317-.813.041-1.624.125-2.428.25-.456.039-.91.036-1.363.021-.657-.023-1.313-.075-1.969-.107-.43-.021-.86-.033-1.292-.014-.273.016-.545-.042-.789-.166-.767-.387-1.2-.237-1.9.6h.006l-3.486-.04a.5217.5217 0 0 0-.083-.096c-.016-.015-.034-.023-.051-.034-.014-.009-.028-.022-.043-.028-.068-.03-.144-.031-.224.009a9.359 9.359 0 0 1-3.161.6c-.495.061-1.096-.055-1.461.422-.052.066-.098.145-.14.236l-.928-.008c-.175-.273-.447-.223-.7-.236-.031-.208-.111-.455-.311-.447-1.185.046-2.333-.309-3.509-.329-.157.008-.3.09-.387.221l-1.871-.02c-.537-.217-.656-.131-.968.7h-.448c-1.283.025-1.706.228-2.02 1.645-.004.02-.012.037-.017.057-.192.802-.587 1.491-.79 2.261-.016.06-.039.116-.052.177h-.009c-.38.044-.674.302-.805.635-.01.026-.031.047-.039.075-.012.041-.005.088-.012.131-.014.086-.034.171-.025.262 0 .003 0 .006.001.009-.007.383-.062.762-.163 1.129s-.247.722-.436 1.056a6.2224 6.2224 0 0 0-.47 2.843v.5h.005-.007v-.002c-.306 0-.464.162-.467.485h-.002c-.333.225-.266.68-.5.964l.008.003h-.003a.4639.4639 0 0 0-.064.007c-.021.004-.037.016-.056.022-.035.011-.068.022-.098.039-.024.014-.043.03-.064.047a.4264.4264 0 0 0-.077.076c-.016.02-.027.041-.039.063a.4295.4295 0 0 0-.045.103c-.007.025-.009.049-.012.075-.003.026-.013.05-.012.077 0 .023.004.045.008.067.1 1.308-.367 2.568-.294 3.871a1.626 1.626 0 0 1-.545 1.4c-.062.038-.105.093-.154.143-.029.029-.065.049-.089.082v.002c-.185.252-.214.587-.076.881.012.026.014.055.029.079.002.003.002.006.003.009.059.096.135.179.225.246.154.187.257.409.3.647.055.363.224.679.462.926.352.368.86.578 1.403.525.13 1.382.993 2.587 2.26 3.154.354.231.745.4 1.156.5.683.234 1.423.244 2.111.026a6.8332 6.8332 0 0 1 3.1-.351c.504.046 1.013.019 1.52.033.01.002.021.003.031.005.057.007.111-.003.164-.014.006-.001.012 0 .017-.001.046-.011.086-.033.126-.056.02-.011.041-.017.059-.03.022-.017.038-.039.057-.059.029-.029.058-.057.08-.093.005-.009.007-.02.012-.03.023-.045.047-.089.056-.142a.2336.2336 0 0 0 .004-.026l.873.03c.018.847.686.784 1.193.946s.001 0 .002 0c.084.175.269.278.462.258h-.001c.822.352 1.681.611 2.56.773h.004l1.163.018h.003a9.504 9.504 0 0 1 2.737.032c.192.044.387.069.581.074.582.016 1.16-.141 1.659-.458.228-.165.492-.261.763-.288.27-.026.546.018.801.136a.661.661 0 0 0 .334.103c.116.004.234-.022.34-.08a3.7756 3.7756 0 0 1 1.774-.394c.204.005.408.027.61.065h.003c1.319.057 2.61-.26 3.937-.223 1.574.21 3.159.329 4.746.355h.027c.131-.008.269.004.399-.004.231-.012.431-.088.498-.461l1.161.02v-.003h.001c.075.093.157.152.243.19.259.115.559.034.836.064.609.066 1.218-.183 1.843.039.089.032.178.073.268.126h.002c.028.017.061.008.09.017.057.017.114.041.175.033.28-.039.584-.323.766-.632.061 0 .123-.003.185-.002.19.003.37.035.497.239h.006v.001H44.8c.041.265.152.472.436.479.734.083 1.476.074 2.208-.026.906-.227 1.854-.22 2.757.019.261.075.54.052.785-.063h.003c.237-.118.485-.204.739-.259a3.1518 3.1518 0 0 1 2.258.36c.39.192.843.212 1.249.056 1.134-.242 2.29-.368 3.45-.376 1.283-.084 2.6.175 3.858-.326.302-.075.615-.093.924-.052 2.526.035 5.052.074 7.578.117.468-.072.945.044 1.328.322.26.179.579.251.891.2 1.9.033 3.808.068 5.713.091.062 0 .127.004.191.007.264.016.53.02.664-.26.004-.008.009-.012.012-.02.002-.005.003-.013.005-.018a.86.86 0 0 0 .05-.172s0-.001 0-.002l1.156.019c.033.226.118.35.231.418.184.116.445.077.676.082 2.045.04 4.091.067 6.136.107.733-.051 1.469.031 2.172.242.293.147.649.068.851-.19v-.003l.696.011c.029.046.071.081.112.117.016.014.027.034.045.047.001 0 .002.002.003.003.015.01.033.012.049.021.049.027.099.052.154.064.006.001.011 0 .017 0 .131.024.271.005.393-.071a.5662.5662 0 0 0 .167-.16v-.004l.448.01c.031.158.086.34.202.412.038.025.083.039.137.034 1.078-.093 2.124.643 3.214.135 1.847.349 3.7-.2 5.55.063.31.04.611.131.892.269.423.211.92.216 1.347.011a4.2476 4.2476 0 0 1 2.752-.068c.72.186 1.47.222 2.205.108 1.069-.147 2.138.056 3.2-.133.37-.066.674.188 1.021.212.89.012 1.78-.032 2.665-.132 1.825-.1 3.661.022 5.494.04.6.006.99.638 1.64.535.543.015 1.087-.034 1.619-.145.219-.087.457-.111.689-.07 1.848.381 3.7 0 5.553.042 1.723-.132 3.452-.159 5.178-.082 1.853.265 3.7-.286 5.548.163a2.841 2.841 0 0 0 1.6-.151c1.482-.615 3-.313 4.509-.355.582.09 1.176-.026 1.682-.327.355-.276.835-.132 1.259-.118.818.061 1.637-.112 2.361-.5.315-.155.667-.219 1.016-.185 1.358.146 2.732.019 4.041-.372.458-.096.93-.107 1.393-.034.738.028 1.476-.031 2.2-.177a29.928 29.928 0 0 1 7.981-.643c.249.008.504-.014.749.012.244.027.479.103.689.31.056.058.184.109.261.112.028.003.05 0 .061-.01.757-.743 1.842-.059 2.656-.715.287-.231.695-.205 1.088-.108.129.032.257.072.378.112.003 0 .005.001.008.002.006.002.012.003.018.005.131.044.264.079.399.103.433.077.88.052 1.305-.076.256-.091.53-.12.8-.087 1.306.1 2.617.112 3.925.036.769.048 1.539-.065 2.262-.332.743-.17 1.507-.213 2.26-.131.25.028.498.069.745.124.192.024.376.077.561.1.186.024.374.02.573-.074a.6058.6058 0 0 1 .665.06c.24.228.484.336.731.369.412.057.831-.094 1.251-.246.327-.127.675-.191 1.026-.191 4.235.073 8.468.142 12.7.205.659.081 1.328.025 1.965-.165a.8374.8374 0 0 1 .46-.031c.259.052.518.09.778.117 1.823.189 3.652-.171 5.481-.044 2.059.142 4.13.09 6.2.126.251.009.502.029.751.06.249.03.496.071.741.122h.008c1.692.268 3.425.052 5-.621.112-.041.212-.11.291-.2a5.6991 5.6991 0 0 0 1.553-5.026ZM2.988 12.527c-.002.002-.005.003-.007.005.002-.002.005-.003.007-.005Z"/></svg>