<svg xmlns="http://www.w3.org/2000/svg" fill="none" viewBox="0 0 191 25"><path fill="#FB6BA7" d="M.0757 7.5933c.025.7515.2423 1.4946.6267 2.1363-.025.9626.3008 1.8914.9024 2.6345.0418.0507.0669.1182.0669.1942-.209 1.1822.3175 2.2799.3676 3.4282.117.9204.1755 1.8577.1588 2.7865-.0084.0676 0 .1435.0334.2027.7437 1.0386.7771 2.3642 1.22 3.5295.259.6839.4762 1.2835 1.27 1.3595.1922.0422.376.1435.5097.287.3092.3209.7103.5067 1.1197.5489.4178.0422.844-.0507 1.2116-.2955.234-.1098.5014-.152.7604-.1267.4512-.0084.9108 0 1.362.0338.4512.0338.9024.0929 1.3453.1689.142.0422.2924.076.4428.0928a2.185 2.185 0 0 0 1.2785-.2702c.3258-.1688.6935-.2195 1.0444-.1435h.1755c1.6294.0929 3.2588.0338 4.8714-.1858a6.9323 6.9323 0 0 1 3.6098.4138c.5849.2448 1.27.1351 1.8466.5235.2757.1435.6016.1098.8439-.0844a.9567.9567 0 0 1 1.337 0c.1504.1351.3676.1688.5431.0844 1.1865-.4138 2.4399-.6249 3.6933-.6333 1.387-.1182 2.7741-.2195 4.1528-.3462 1.1614-.1098 2.3145-.304 3.4677-.3715.8773 0 1.7463.1013 2.5986.3124.6685.1435 1.3536.1604 2.0221.0422.8523-.1689 1.738-.2786 2.582-.3631.777-.0506 1.5541.0085 2.3062.1774 1.4706.2786 2.9746.3039 4.4536.0844a13.514 13.514 0 0 1 1.6544-.0253c.7103.076 1.4373.0337 2.1308-.1351.2172-.0845.4679-.0591.6684.0591a10.434 10.434 0 0 0 2.6154.7515c.1922.0591.3927.076.5849.0422 1.2116-.2364 2.4566-.076 3.6766-.2787a11.3969 11.3969 0 0 1 2.1474-.0253 17.943 17.943 0 0 0 4.6542-.2786c.4011-.0929.752.1435 1.1447.1857.727.0676 1.4122-.2195 2.1308-.1942a79.1728 79.1728 0 0 0 2.8326.0507c.7771.0422 1.5625 0 2.3313-.1267a4.2054 4.2054 0 0 1 1.7463.0591c1.4539.1858 2.9162.2449 4.3785.1942 1.3285-.7092 2.7574-.1604 4.1194-.363 1.1949-.1858 2.3981-.0085 3.5763-.2871a3.087 3.087 0 0 1 1.362 0c1.8717.4053 3.7601.1688 5.6401.2786a3.3145 3.3145 0 0 1 1.2534.1689c.234.1351.526.1266.76-.0169.477-.2955 1.045-.4053 1.596-.2955 1.204.0084 2.407.0422 3.618.0506.31 0 .686.1098.778-.3884v-.0084l1.153.0169c.05.3546.292.4221.576.4053 1.111-.0676 2.214.0844 3.326.1942.042 0 .092.0084.133.0169.076 0 .143.0084.218.0168.158.0169.317.0338.476.0423h.134c.184.0084.376.0253.56.0337h.693c.426-.0422.852.0169 1.253.1605.151.076.318.1097.477.1097.167 0 .326-.0422.476-.1266.368-.1858.76-.2956 1.161-.3293.402-.0338.811.0084 1.195.1351.36.0929.727.152 1.095.1773.368.0338.735.0338 1.103 0 .125-.0253.251-.0169.376 0 .376.0591.752.2449 1.153.2195.276.0085.543 0 .819 0 1.153.0169 2.314-.0084 3.459-.1351a2.946 2.946 0 0 1 .393-.0506c.393-.0169.777.0422 1.145.1688.317.0845.643.1183.969.0929 6.15.1098 12.3.2111 18.458.304.677.0845 1.37.0338 2.03-.1351.393-.1435.761.1689 1.145.1773 1.212.1351 2.44.1436 3.652.0085.05 0 .1 0 .142-.0085 1.002-.228 2.03-.3293 3.058-.2786 1.069.0675 2.122.2449 3.2.2702.677-.0338 1.354-.1013 2.031-.2111.342-.0253.685-.0338 1.027-.0253.594.0168 1.179.0675 1.772.0928.359.0169.71.0254 1.069.0085.226-.0169.46.0338.66.1435.644.3293 1.003.2027 1.588-.5066l2.916.0338s.042.0591.067.0844c.008.0085.025.0169.034.0253a.1873.1873 0 0 1 .041.0338c.059.0254.117.0254.184 0 .844-.3208 1.738-.4897 2.641-.5066.409-.0507.919.0507 1.22-.3547.041-.0591.083-.1182.116-.2026h.778c.15.2364.376.1942.584.2026.026.1774.092.3885.26.38.986-.0422 1.946.2618 2.932.2787.134 0 .251-.076.326-.1858l1.563.0169c.451.1858.551.1098.81-.5911h.376c1.07-.0169 1.429-.1942 1.688-1.3848 0-.0253.017-.0506.025-.076.167-.6755.502-1.2581.66-1.9167.009-.0422.025-.076.034-.1098.317-.0338.56-.2533.668-.532.009-.0253.025-.0422.034-.0675.008-.0338 0-.076.008-.1098.008-.076.025-.1435.025-.228 0-.3208.05-.6417.134-.9541.083-.3124.209-.608.367-.8951.318-.7599.452-1.579.393-2.398V14.34c.259 0 .385-.1351.393-.4053.276-.1942.226-.5742.418-.8106h.05c.017 0 .033-.0169.05-.0169.025-.0085.058-.0169.084-.0338.016-.0084.033-.0253.05-.0422.025-.0169.041-.0422.067-.0676a.1837.1837 0 0 0 .033-.0506c.017-.0254.025-.0591.033-.0845 0-.0169 0-.0422.009-.0675 0-.0254.008-.0422.008-.0676v-.0591c-.083-1.1061.309-2.1701.242-3.2678-.05-.4475.126-.8866.46-1.1821.05-.0338.084-.076.125-.1182.025-.0253.059-.0422.084-.076.159-.2111.175-.4982.067-.743-.009-.0254-.009-.0423-.025-.0676-.051-.0845-.117-.152-.193-.2111-.125-.1604-.217-.3462-.25-.5489-.05-.3124-.192-.591-.401-.8021-.293-.2956-.711-.4729-1.153-.4307-.109-1.1652-.828-2.187-1.889-2.6598-.292-.1942-.627-.3378-.969-.4222a2.8583 2.8583 0 0 0-1.763-.0253 5.7383 5.7383 0 0 1-2.59.2955c-.418-.0422-.844-.0169-1.271-.0253h-.025c-.05 0-.092 0-.133.0084h-.017c-.042.0085-.075.0254-.109.0507a2.2722 2.2722 0 0 1-.05.0253 2.373 2.373 0 0 1-.05.0507c-.025.0253-.05.0507-.067.076 0 0 0 .0169-.008.0253-.017.0338-.042.076-.05.1182v.0254l-.727-.0254c-.017-.7177-.577-.6586-.995-.8021-.066-.152-.225-.2365-.384-.2196a9.9455 9.9455 0 0 0-2.139-.6502l-.969-.0169c-.376.0507-.761.076-1.145.0676-.384 0-.76-.0338-1.145-.1013-.159-.0338-.326-.0591-.484-.0591-.485-.017-.97.1182-1.387.3884-.193.135-.41.2195-.636.2449-.225.0253-.459-.017-.668-.1182-.084-.0592-.184-.0845-.276-.0845-.1 0-.192.0169-.284.0676-.459.228-.969.3462-1.479.3293-.167 0-.342-.0254-.509-.0507-1.103-.0507-2.181.2195-3.293.1858-1.312-.1773-2.64-.2787-3.969-.2956h-.351c-.192.0085-.359.076-.417.3885l-.97-.017c-.067-.076-.133-.1266-.2-.1604-.217-.0928-.468-.0253-.702-.0506-.51-.0591-1.02.152-1.538-.0338a.9213.9213 0 0 1-.225-.1098c-.025-.0169-.05 0-.075-.0169-.051-.0168-.092-.0337-.142-.0253-.234.0338-.485.2702-.644.532h-.15c-.159 0-.318-.0254-.418-.2027-.033-.2195-.125-.3968-.368-.4053a7.5042 7.5042 0 0 0-1.846.0253c-.761.1943-1.546.1858-2.307-.0168-.217-.0591-.451-.0423-.651.0506-.201.1013-.41.1689-.619.2196a2.6497 2.6497 0 0 1-1.888-.304c-.326-.1604-.702-.1773-1.045-.0507-.944.2027-1.913.3124-2.882.3209-1.07.0675-2.173-.152-3.226.2786-.25.0591-.518.076-.768.0423-2.114-.0338-4.22-.0592-6.334-.1014-.393.0591-.794-.0338-1.111-.2702a1.0148 1.0148 0 0 0-.744-.1689c-1.588-.0253-3.184-.059-4.771-.076h-.167c-.218-.0168-.435-.0168-.543.2196 0 0-.009.0169-.017.0253v.0085a.629.629 0 0 0-.042.152l-.969-.017c-.025-.1941-.1-.2955-.192-.3546-.151-.1013-.368-.0675-.569-.0675-1.713-.0338-3.417-.0591-5.13-.093-.61.0423-1.228-.0252-1.813-.2026-.243-.1266-.543-.059-.71.1605h-.585c-.025-.0422-.059-.0676-.092-.093-.017-.0168-.025-.0337-.042-.0421-.017-.0085-.025-.0085-.042-.017a.3898.3898 0 0 0-.125-.0506h-.017c-.109-.0169-.226 0-.326.0591-.058.0338-.1.0845-.142.1351h-.376c-.025-.135-.075-.287-.167-.3462-.033-.0253-.067-.0337-.117-.0253-.902.076-1.771-.5404-2.682-.1182-1.546-.2956-3.092.1689-4.638-.0507a2.303 2.303 0 0 1-.743-.228c-.351-.1773-.769-.1857-1.128-.0084-.736.2786-1.546.2955-2.298.0591-.602-.1604-1.229-.1858-1.8385-.0929-.894.1267-1.7881-.0506-2.6738.1098-.3092.059-.5599-.1604-.8523-.1773-.7437-.0085-1.4874.0253-2.231.1097-1.5208.0845-3.0582-.0169-4.5874-.0337-.5013 0-.8272-.5404-1.3703-.4476a5.2232 5.2232 0 0 0-1.3537.1267c-.1838.076-.3843.0929-.5765.0591-1.5458-.3209-3.0917 0-4.6375-.0338-1.4372.1098-2.8827.1351-4.3283.0676-1.5458-.2196-3.0916.2448-4.6375-.1351-.4512-.0845-.9107-.0422-1.3369.1266-1.2366.5151-2.5067.2618-3.7685.304-.4846-.076-.9859.0253-1.4037.2787-.2925.2364-.6936.1097-1.0529.1013-.6851-.0507-1.3703.0929-1.9719.4222-.2591.1266-.5599.1857-.8523.1604-1.1364-.1266-2.2812-.0169-3.3758.3124a2.9888 2.9888 0 0 1-1.1614.0254 7.4478 7.4478 0 0 0-1.8383.152c-2.1892.4813-4.4286.667-6.6679.5404-.2089 0-.4178.0084-.6267-.0085-.2006-.0253-.4011-.0844-.5766-.2617-.0501-.0507-.1504-.093-.2172-.093-.0251 0-.0418 0-.0502.0085-.635.6249-1.5374.0507-2.2226.608-.2423.1942-.5849.1773-.9108.0929a3.4985 3.4985 0 0 1-.3175-.093h-.0167c-.1087-.0337-.2173-.0675-.3343-.0844-.3593-.0675-.7353-.0422-1.0946.0676a1.5033 1.5033 0 0 1-.6684.076c-1.0946-.0844-2.1893-.0929-3.2839-.0338-.6434-.0422-1.2868.0591-1.8884.2787-.6183.1435-1.2617.1773-1.8884.1097a7.2622 7.2622 0 0 1-.6183-.1013c-.1588-.0169-.3175-.0675-.4679-.0844-.1588-.017-.3092-.017-.4763.059a.4955.4955 0 0 1-.2841.0592c-.1003-.0085-.1922-.0422-.2674-.1098-.2005-.1942-.4011-.287-.61-.3124-.3426-.0507-.6935.076-1.0445.211-.2757.1099-.5682.1605-.8606.1605l-10.6119-.1773c-.5515-.0676-1.1113-.0253-1.6377.1435a.7466.7466 0 0 1-.3844.0254 8.696 8.696 0 0 0-.6517-.1014c-1.5208-.1604-3.0499.1436-4.579.0338-1.7213-.1182-3.451-.076-5.1806-.1098-.209 0-.4178-.0253-.6267-.0506a7.2695 7.2695 0 0 1-.6183-.1013c-1.4122-.228-2.866-.0423-4.178.5235a.6028.6028 0 0 0-.2423.1689C.2846 4.4607-.2 6.048.0757 7.5933Z"/></svg>