<svg xmlns="http://www.w3.org/2000/svg" viewBox="0 0 236.31 33.192"><path fill="#0fd8a7" d="M236.281 4.307c-.148-1.329-.895-2.442-1.845-3.478a.7419.7419 0 0 0-.306-.182 9.8522 9.8522 0 0 0-5.19-.429c-.507.119-1.022.197-1.541.234-2.135.111-4.277.135-6.4.348-2.154.216-4.329-.189-6.465.297a.92.92 0 0 1-.48-.014 5.2214 5.2214 0 0 0-2.038-.091l-13.127.66c-.362.013-.723-.038-1.068-.151-.7-.213-1.4-.427-2.037.191a.6573.6573 0 0 1-.697.084c-.386-.093-.79-.071-1.163.066-1.019.255-2.081.29-3.115.103a5.99 5.99 0 0 0-2.35-.245 31.773 31.773 0 0 0-4.057.178c-.279.043-.564.024-.834-.056a3.0502 3.0502 0 0 0-1.779.092c-.472.252-1.033.274-1.523.059-.864-.615-1.962.097-2.771-.603-.045-.039-.247.032-.321.111-.424.425-.971.334-1.487.37-2.761.238-5.541.123-8.273-.342-.754-.117-1.519-.149-2.28-.094-.476.089-.963.095-1.441.018-1.37-.337-2.792-.411-4.19-.218a2.045 2.045 0 0 1-1.057-.145 4.6627 4.6627 0 0 0-2.458-.409c-.437.028-.929.188-1.303-.07-.479-.242-1.017-.328-1.547-.267-.067.007-.134.008-.2.02-1.559.013-3.121.36-4.674-.185-.384-.13-.789-.18-1.19-.154-.158.01-.315.029-.471.063-1.896.509-3.824.034-5.731.361-1.782.139-3.57.175-5.355.108-1.912.104-3.843-.198-5.74.242-.238.049-.484.034-.715-.044a7.5446 7.5446 0 0 0-1.678-.083c-.676-.076-1.058.558-1.68.586-.309.014-.618.033-.927.051-.165.01-.329.017-.494.027-.02.001-.04.002-.06.004-1.399.086-2.797.182-4.194.157-.918-.066-1.839-.077-2.759-.033h-.003c-.267.027-.506.18-.77.233a.8771.8771 0 0 1-.257.011c-.006 0-.011.002-.018 0-.55-.074-1.1-.051-1.651-.023-.275.014-.551.029-.827.034-.276.005-.553 0-.83-.026a5.8745 5.8745 0 0 0-1.148-.017c-.382.031-.761.099-1.132.203-.381.128-.775.193-1.171.219-.562.036-1.129-.018-1.674-.188-.45-.186-.959-.164-1.392.059-.287.146-.595.247-.913.297-1.9.322-3.838-.148-5.736.263-1.142-.459-2.2.302-3.318.249-.218-.01-.294.239-.329.447h.002v.002l-.467.026h-.001a.609.609 0 0 0-.139-.124c-.008-.005-.016-.005-.024-.01-.035-.021-.073-.031-.112-.044-.037-.013-.072-.028-.11-.033-.033-.004-.065 0-.098.002-.044.001-.088 0-.13.012-.028.007-.053.023-.08.034-.046.019-.09.038-.13.068-.006.004-.013.005-.019.01-.04.033-.072.073-.102.114-.007.009-.017.014-.023.024l-.236.012-.488.024a.7374.7374 0 0 0-.886-.156 6.599 6.599 0 0 1-2.236.316c-2.112.113-4.227.213-6.34.322-.381.02-.844-.07-.914.518l-1.197.061a.8225.8225 0 0 0-.063-.184c-.18-.365-.573-.255-.907-.238-1.968.092-3.935.195-5.903.297-.323-.038-.648.045-.914.232-.392.289-.878.419-1.362.364-2.61.132-5.22.262-7.83.389-.317.051-.641.045-.957-.018-1.316-.447-2.671-.144-4-.181-1.198.034-2.397-.048-3.579-.245-.426-.139-.89-.103-1.29.1-.94.564-2.095.642-3.102.209a1.2204 1.2204 0 0 0-.813-.034c-.926.268-1.904.309-2.849.119a9.6973 9.6973 0 0 0-2.284.054c-.293.017-.4.224-.434.486-.166.273-.439.253-.702.259-.133-.196-.319-.38-.515-.489-.197-.112-.403-.148-.572-.045-.731.446-1.461.14-2.18.239-.378.052-.809-.088-1.104.289l-1.198.062c-.118-.532-.509-.435-.867-.427-.302-.041-.618-.018-.967.032-.156.022-.336.05-.501.075-1.181.096-2.359.223-3.529.413-1.37.084-2.717-.181-4.08-.077-.582.126-1.18.115-1.755-.012-.247-.07-.501-.13-.725-.226a.713.713 0 0 0-.694.047c-.522.25-1.135.215-1.626-.092a3.168 3.168 0 0 0-2.326-.297c-.934.173-1.887.217-2.832.13s-.26.015-.26.015l-.935.045s-.002.003-.003.004h-.007c-.898.19-1.772.474-2.61.848a.475.475 0 0 0-.28.065.478.478 0 0 0-.201.209c-.287.098-.623.136-.867.286-.087.053-.166.117-.222.209-.072.116-.113.27-.11.477l-.91.062s-.002-.003-.002-.005c0-.004-.002-.008-.003-.012-.005-.023-.02-.041-.028-.063-.016-.043-.029-.086-.055-.123-.015-.021-.036-.036-.054-.055-.029-.03-.055-.062-.09-.085-.024-.016-.053-.022-.079-.034-.035-.015-.068-.034-.106-.042-.033-.007-.069-.001-.104-.001-.032 0-.063-.007-.096-.001a.1046.1046 0 0 0-.017.004h-.001c-.027.002-.053.002-.08.003-.446.024-.894.031-1.339.074-.05.005-.102.005-.152.011-.268.039-.538.064-.808.074-.81.029-1.62-.074-2.4-.308a3.651 3.651 0 0 0-1.099-.115c-.368.017-.733.09-1.084.218-.421.114-.82.297-1.181.541-1.168.729-2.209 1.612-2.228 3.177-.92-.073-1.741.578-1.878 1.491-.038.237-.138.46-.289.646-.105.077-.18.176-.237.283-.002.004-.007.006-.009.011-.01.02-.009.043-.018.063-.032.077-.058.154-.066.236-.003.031.003.06.004.09.001.076.006.151.028.225.01.034.029.062.043.094.024.054.038.111.075.161.008.01.021.014.029.024.052.065.121.116.194.164.027.018.044.047.073.062.421.319.651.83.612 1.357-.03 1.283.498 2.503.433 3.793-.001.011.003.021.002.033 0 .015-.003.029-.002.044 0 .012.006.021.008.032.005.048.014.093.032.137.006.016.014.03.022.045.021.04.046.076.078.109.013.014.027.025.042.037a.454.454 0 0 0 .105.066c.022.01.045.017.069.024.023.006.042.019.066.023.026.003.052.005.078.004.248.27.194.719.547.929a.4138.4138 0 0 0 .005.111c.003.014.011.025.015.039.005.017.012.032.019.049.015.036.032.07.055.1.01.013.021.023.033.034.027.027.055.052.088.071.016.009.033.015.049.022.034.014.067.026.104.031.009.001.015.006.024.007.031.003.063 0 .094-.004.005 0 .009.001.014 0h.003c.006.163.011.326.017.49-.04.96.159 1.915.577 2.78.413.637.652 1.371.694 2.129-.022.419.219.788.578.955.011.005.024.004.035.009.104.044.214.079.334.086h.017c.221.844.739 1.552.973 2.42.373 1.38.818 1.565 2.145 1.544l.462-.016c.35.805.477.883 1.023.649l1.935-.087c.097.127.247.202.407.203 1.215-.063 2.39-.453 3.616-.451.009 0 .015-.007.023-.008.09-.01.155-.062.198-.143.047-.088.072-.2.085-.301.024-.002.048-.003.072-.004.239-.013.487-.003.641-.253l.96-.041c.37.725 1.091.541 1.678.588 1.118-.021 2.231.142 3.296.485.157.06.334-.01.405-.162l3.602-.165c.755.796 1.203.928 1.983.52.249-.132.528-.198.809-.192 1.601.012 3.172-.336 4.777-.267.84.039 1.662.202 2.519.157 1.329-.069 2.628-.325 3.944-.45 1.267-.097 2.541-.031 3.791.195 1.566.113 3.141.058 4.695-.164.476-.029.911-.41 1.404-.259.829.172 1.682.197 2.52.073 7.609-.377 15.218-.761 22.826-1.154.402.009.802-.043 1.189-.153a3.841 3.841 0 0 1 1.905-.213c1.765.11 3.536.096 5.3-.042.665.009 1.251-.412 1.889-.323.914.039 1.828-.064 2.71-.305a4.1618 4.1618 0 0 1 2.934.123c.375.175.809.167 1.177-.021a3.7802 3.7802 0 0 1 1.54-.24c2.3-.004 4.541-.642 6.843-.597.349.007.645-.08.693-.5h.002l1.419-.071c.002.007.004.01.006.017h-.004c.141.574.595.431.98.418 1.49-.067 2.979-.152 4.47-.22a2.8868 2.8868 0 0 1 1.985.273.959.959 0 0 0 .937-.016 4.3827 4.3827 0 0 1 1.54-.245c2.32-.216 4.671-.024 6.969-.573a4.1685 4.1685 0 0 1 1.683-.059c1.475.274 2.958.022 4.439.182 1.694.183 3.437-.519 5.11.247 1.81-.005 3.618-.145 5.408-.42a5.4287 5.4287 0 0 1 2.156-.146c.958.117 1.925.132 2.886.046 1.169-.042 2.337-.101 3.504-.178.885-.058 1.746.244 2.642.135.481-.059.912-.357 1.408-.263 1.909.278 3.846.321 5.766.126.881-.1 1.769-.12 2.653-.062 1.52.186 3.051-.052 4.559.169.242.03.487.005.718-.072 1.105-.194 2.182-.525 3.206-.984.247-.15.547-.188.824-.103.871.164 1.763.187 2.641.067.683-.052 1.368-.065 2.052-.041 1.838.193 3.696.097 5.504-.287.933-.225 1.891-.328 2.85-.306 1.054.062 2.146.156 3.212.313.836.109 1.685.064 2.504-.134 1.045-.28 2.118-.441 3.199-.477 1.435.024 2.87.208 4.311.281 1.72.083 3.44.144 5.158.219 1.552-.042 3.102.154 4.594.582.229.094.491.046.672-.124.457-.439 1.171-.464 1.657-.058.309.214.712.239 1.044.063.705-.474 1.551-.382 2.268-.69a9.04 9.04 0 0 1 4.455-.637c2.083.197 4.179.193 6.261-.012.437-.097.894-.053 1.305.125.662.326 1.427.375 2.126.137 1.103-.228 2.225-.348 3.351-.358.319-.047.645-.009.945.109.934.54 2.115.379 2.87-.391.165-.18.382-.305.621-.358.986-.122 1.227-.828 1.519-1.634.497-1.373.491-2.912 1.367-4.157a.3698.3698 0 0 0 .031-.236c-.05-1.083-.022-2.169.086-3.248.024-1.347.622-2.643.319-4.012a.3567.3567 0 0 1 .074-.226 4.5274 4.5274 0 0 0 1.005-3.105c.625-.729.521-1.66.691-2.513.1-.502.115-.975.064-1.423Z"/></svg>