<svg xmlns="http://www.w3.org/2000/svg" width="28.9" height="28.899"><radialGradient id="a" cx="30%" cy="107%" r="150%"><stop offset="0" stop-color="#fdf497"/><stop offset=".05" stop-color="#fdf497"/><stop offset=".45" stop-color="#fd5949"/><stop offset=".6" stop-color="#d6249f"/><stop offset=".9" stop-color="#285AEB"/></radialGradient><g data-name="Group 1853"><g fill-rule="evenodd" data-name="Group 1612"><path fill="#fff" d="M14.449 11.661a2.725 2.725 0 0 0-2.724 2.725 2.724 2.724 0 0 0 2.724 2.724 2.724 2.724 0 0 0 2.724-2.724 2.724 2.724 0 0 0-2.724-2.725Z" data-name="Path 699"/><path fill="#fff" d="M20.822 9.565a2.538 2.538 0 0 0-.611-.94 2.531 2.531 0 0 0-.94-.611 4.531 4.531 0 0 0-1.518-.281c-.862-.04-1.12-.048-3.3-.048s-2.441.008-3.3.048a4.524 4.524 0 0 0-1.517.281 2.527 2.527 0 0 0-.94.611 2.54 2.54 0 0 0-.612.94 4.53 4.53 0 0 0-.281 1.518c-.039.862-.048 1.12-.048 3.3s.009 2.441.048 3.3a4.523 4.523 0 0 0 .281 1.517 2.53 2.53 0 0 0 .612.94 2.534 2.534 0 0 0 .94.612 4.512 4.512 0 0 0 1.517.281c.862.04 1.12.048 3.3.048s2.441-.009 3.3-.048a4.519 4.519 0 0 0 1.518-.281 2.539 2.539 0 0 0 .94-.612 2.529 2.529 0 0 0 .611-.94 4.523 4.523 0 0 0 .281-1.517c.04-.862.048-1.121.048-3.3s-.008-2.441-.048-3.3a4.53 4.53 0 0 0-.281-1.518Zm-6.372 9.017a4.2 4.2 0 0 1-4.2-4.2 4.2 4.2 0 0 1 4.2-4.2 4.2 4.2 0 0 1 4.2 4.2 4.2 4.2 0 0 1-4.201 4.2ZM18.813 11a.981.981 0 0 1-.981-.981.981.981 0 0 1 .981-.98.981.981 0 0 1 .981.98.981.981 0 0 1-.981.981Z" data-name="Path 700"/><path fill="#fff" d="M14.45 0A14.446 14.446 0 0 0 0 14.45 14.446 14.446 0 0 0 14.45 28.9 14.446 14.446 0 0 0 28.9 14.45 14.446 14.446 0 0 0 14.45 0Zm8.125 17.756a6 6 0 0 1-.38 1.984 4 4 0 0 1-.943 1.448 4.01 4.01 0 0 1-1.448.943 5.994 5.994 0 0 1-1.984.38c-.872.04-1.15.049-3.37.049s-2.5-.009-3.37-.049a5.994 5.994 0 0 1-1.984-.38 4 4 0 0 1-1.447-.943 4 4 0 0 1-.943-1.448 5.987 5.987 0 0 1-.38-1.984c-.04-.872-.05-1.15-.05-3.37s.01-2.5.05-3.37a5.993 5.993 0 0 1 .38-1.984 4 4 0 0 1 .943-1.448 4 4 0 0 1 1.447-.943 5.991 5.991 0 0 1 1.984-.38c.872-.04 1.15-.049 3.37-.049s2.5.01 3.37.049a5.991 5.991 0 0 1 1.984.38 4.008 4.008 0 0 1 1.448.943 4.008 4.008 0 0 1 .943 1.448 6.007 6.007 0 0 1 .38 1.984c.04.872.049 1.15.049 3.37s-.01 2.498-.054 3.37Z" data-name="Path 701"/><path fill="url(#a)" d="M-53.623 335.119a2.725 2.725 0 0 0-2.724 2.725 2.724 2.724 0 0 0 2.724 2.724 2.724 2.724 0 0 0 2.724-2.724 2.724 2.724 0 0 0-2.724-2.725Z" data-name="Path 699" transform="translate(68.072 -323.458)"/><path fill="url(#a)" d="M-50.708 329.565a2.538 2.538 0 0 0-.611-.94 2.531 2.531 0 0 0-.94-.611 4.531 4.531 0 0 0-1.518-.281c-.862-.04-1.12-.048-3.3-.048s-2.441.008-3.3.048a4.524 4.524 0 0 0-1.517.281 2.527 2.527 0 0 0-.94.611 2.54 2.54 0 0 0-.612.94 4.53 4.53 0 0 0-.281 1.518c-.039.862-.048 1.12-.048 3.3s.009 2.441.048 3.3a4.523 4.523 0 0 0 .281 1.517 2.53 2.53 0 0 0 .612.94 2.534 2.534 0 0 0 .94.612 4.512 4.512 0 0 0 1.517.281c.862.04 1.12.048 3.3.048s2.441-.009 3.3-.048a4.519 4.519 0 0 0 1.518-.281 2.539 2.539 0 0 0 .94-.612 2.529 2.529 0 0 0 .611-.94 4.523 4.523 0 0 0 .281-1.517c.04-.862.048-1.121.048-3.3s-.008-2.441-.048-3.3a4.53 4.53 0 0 0-.281-1.518Zm-6.372 9.017a4.2 4.2 0 0 1-4.2-4.2 4.2 4.2 0 0 1 4.2-4.2 4.2 4.2 0 0 1 4.2 4.2 4.2 4.2 0 0 1-4.201 4.2Zm4.363-7.582a.981.981 0 0 1-.981-.981.981.981 0 0 1 .981-.98.981.981 0 0 1 .981.98.981.981 0 0 1-.981.981Z" data-name="Path 700" transform="translate(71.53 -320)"/><path fill="url(#a)" d="M-63.82 313.316a14.446 14.446 0 0 0-14.45 14.45 14.446 14.446 0 0 0 14.45 14.45 14.446 14.446 0 0 0 14.45-14.45 14.446 14.446 0 0 0-14.45-14.45Zm8.125 17.756a6 6 0 0 1-.38 1.984 4 4 0 0 1-.943 1.448 4.01 4.01 0 0 1-1.448.943 5.994 5.994 0 0 1-1.984.38c-.872.04-1.15.049-3.37.049s-2.5-.009-3.37-.049a5.994 5.994 0 0 1-1.984-.38 4 4 0 0 1-1.447-.943 4 4 0 0 1-.943-1.448 5.987 5.987 0 0 1-.38-1.984c-.04-.872-.05-1.15-.05-3.37s.01-2.5.05-3.37a5.993 5.993 0 0 1 .38-1.984 4 4 0 0 1 .943-1.448 4 4 0 0 1 1.447-.943 5.991 5.991 0 0 1 1.984-.38c.872-.04 1.15-.049 3.37-.049s2.5.01 3.37.049a5.991 5.991 0 0 1 1.984.38 4.008 4.008 0 0 1 1.448.943 4.008 4.008 0 0 1 .943 1.448 6.007 6.007 0 0 1 .38 1.984c.04.872.049 1.15.049 3.37s-.01 2.498-.054 3.37Z" data-name="Path 701" transform="translate(78.27 -313.316)"/></g></g></svg>