<svg xmlns="http://www.w3.org/2000/svg" xml:space="preserve" width="30.781" height="30.78" style="enable-background:new 0 0 30.781 30.78"><path fill="#fff" d="M15.399-.004h-.008C6.8936-.0068.0027 6.8795 0 15.377v.009c-.0022 8.4974 6.8845 15.3878 15.382 15.39h.009c8.4974.0022 15.3878-6.8846 15.39-15.382v-.008c.0022-8.4975-6.8845-15.3878-15.382-15.39zm-3.678 22.05H8.232v-10.5h3.489v10.5zm-1.5896-11.9196a1.81 1.81 0 0 1-.1544-.0065v-.003h-.023c-.9951.0674-1.8565-.6847-1.9239-1.6798a1.7893 1.7893 0 0 1-.0041-.1331c.0003-1.0057.8159-1.8207 1.8215-1.8204.0509 0 .1018.0022.1525.0064.9996-.0751 1.8708.6743 1.9459 1.6739a1.818 1.818 0 0 1 .0051.1401c.0008 1.0057-.8139 1.8216-1.8196 1.8224zM24.301 22.046h-3.488v-5.615c0-1.411-.505-2.374-1.768-2.374a1.91 1.91 0 0 0-1.79 1.276 2.3845 2.3845 0 0 0-.115.851v5.862h-3.489s.045-9.512 0-10.5h3.489v1.486a3.4619 3.4619 0 0 1 3.145-1.726c2.3 0 4.016 1.5 4.016 4.726v6.014z"/></svg>