<svg xmlns="http://www.w3.org/2000/svg" width="30.091" height="30.092" data-name="Group 2576"><g data-name="Group 2575"><path fill="#fff" d="M15.044 30.092a15.046 15.046 0 1 1 15.047-15.038 15.047 15.047 0 0 1-15.047 15.038M23.21 9.951c-.105-.019-.177-.035-.25-.045a5.048 5.048 0 0 1-3.025-1.59A7.64 7.64 0 0 1 18.641 6.5a.347.347 0 0 0-.366-.215c-.814.011-1.628 0-2.442.005-.389 0-.357-.057-.358.36v11.312a2.767 2.767 0 0 1-5.485.535 2.726 2.726 0 0 1 1.924-3.155 6.863 6.863 0 0 1 1.33-.132c.177-.014.356 0 .529 0v-3.097a17.463 17.463 0 0 0-2.031.123 5.825 5.825 0 1 0 6.8 5.7c.008-2.2 0-4.4 0-6.6v-.346a6.821 6.821 0 0 0 4.091 1.9l.581-2.941" data-name="Path 3319"/></g></svg>