<svg xmlns="http://www.w3.org/2000/svg" width="38.021" height="38.021"><path fill="#fff" d="M19.01 38.02a18.892 18.892 0 0 1-7.4-1.494 18.945 18.945 0 0 1-6.043-4.074 18.95 18.95 0 0 1-4.074-6.043 18.9 18.9 0 0 1-1.494-7.4 18.892 18.892 0 0 1 1.494-7.4 18.951 18.951 0 0 1 4.074-6.043 18.947 18.947 0 0 1 6.043-4.074 18.892 18.892 0 0 1 7.4-1.494 18.89 18.89 0 0 1 7.4 1.494 18.945 18.945 0 0 1 6.042 4.074 18.95 18.95 0 0 1 4.074 6.043 18.892 18.892 0 0 1 1.494 7.4 18.9 18.9 0 0 1-1.494 7.4 18.949 18.949 0 0 1-4.074 6.043 18.946 18.946 0 0 1-6.042 4.074 18.89 18.89 0 0 1-7.4 1.494Zm-1.232-16.428 5.336 7.767h5.828l-7.925-11.534 7.288-8.471h-1.727l-6.328 7.355-5.053-7.355H9.368l7.643 11.122-7.643 8.883h1.727l6.682-7.767Zm8.8 6.527h-2.652l-5.274-7.544-.775-1.108-6.161-8.813h2.653l4.972 7.112.775 1.108 6.462 9.243Z" data-name="Subtraction 1"/></svg>