<svg xmlns="http://www.w3.org/2000/svg" width="473.932" height="473.932" data-name="Group 2867"><path fill="#fff" d="m216.64 280.146 68.7-45.29-68.7-45.294Z" data-name="Path 4955"/><path fill="#fff" d="M236.966 0C106.093 0 0 106.093 0 236.966s106.093 236.966 236.966 236.966 236.966-106.093 236.966-236.966S367.839 0 236.966 0Zm124 191.238v96.444a35.955 35.955 0 0 1-35.947 35.966H156.372a35.953 35.953 0 0 1-35.94-35.966v-96.444a35.954 35.954 0 0 1 35.94-35.966h168.652a35.955 35.955 0 0 1 35.947 35.966Z" data-name="Path 4956"/></svg>